Coordinates
version=1
nRows=11
nColumns=63
inDegrees=yes

Units are S.I. units (second, meters, Newtons, ...)
If the header above contains a line with 'inDegrees', this indicates whether rotational values are in degrees (yes) or radians (no).

endheader
time	pelvis_tilt	pelvis_list	pelvis_rotation	pelvis_tx	pelvis_ty	pelvis_tz	hip_flexion_r	hip_adduction_r	hip_rotation_r	knee_angle_r	knee_angle_r_beta	ankle_angle_r	subtalar_angle_r	mtp_angle_r	hip_flexion_l	hip_adduction_l	hip_rotation_l	knee_angle_l	knee_angle_l_beta	ankle_angle_l	subtalar_angle_l	mtp_angle_l	L5_S1_Flex_Ext	L5_S1_Lat_Bending	L5_S1_axial_rotation	L4_L5_Flex_Ext	L4_L5_Lat_Bending	L4_L5_axial_rotation	L3_L4_Flex_Ext	L3_L4_Lat_Bending	L3_L4_axial_rotation	L2_L3_Flex_Ext	L2_L3_Lat_Bending	L2_L3_axial_rotation	L1_L2_Flex_Ext	L1_L2_Lat_Bending	L1_L2_axial_rotation	L1_T12_Flex_Ext	L1_T12_Lat_Bending	L1_T12_axial_rotation	Abs_r3	Abs_r2	Abs_r1	Abs_t1	Abs_t2	neck_flexion	neck_bending	neck_rotation	arm_flex_r	arm_add_r	arm_rot_r	elbow_flex_r	pro_sup_r	wrist_flex_r	wrist_dev_r	arm_flex_l	arm_add_l	arm_rot_l	elbow_flex_l	pro_sup_l	wrist_flex_l	wrist_dev_l
      1.00000000	      4.33854993	     -3.43632517	     84.90220015	      0.24175775	      1.05183533	      0.33851812	     -0.08201871	      5.32343552	      4.17915746	      7.08091655	      0.12358531	     36.23389150	      0.35765392	      0.00000000	     -4.88471379	     -4.96668344	      2.26318061	      0.32601261	      0.00568999	     30.00900794	     -8.87220518	      0.00000000	     -0.09891731	      0.35708649	      0.19569249	     -0.18369934	      0.47492503	      0.20792327	     -0.16251125	      0.86822009	      0.20792327	     -0.11305259	      0.86822009	      0.17123093	     -0.09185461	      0.72817077	      0.15900015	     -0.05652135	      0.55312697	      0.14676937	     -0.70655646	      4.03943378	      1.08838291	      0.00000000	      0.00000000	     24.04210776	      4.82343379	     14.28419813	     -6.65980155	    -11.48938530	    -31.97294696	     20.12033071	      3.57316844	    -12.06886572	      3.85178948	      0.04815502	    -12.70715629	     84.67963568	      4.44142592	     70.16753438	    -14.57447488	      3.05038087
      1.01694915	      4.43249330	     -3.44839342	     84.46742684	      0.24235597	      1.05194030	      0.33799611	     -0.11036855	      5.42903497	      4.61952876	      7.13545809	      0.12453724	     36.03490231	      0.06517755	      0.00000000	     -5.01286705	     -5.03152694	      2.13497386	      0.31969273	      0.00557969	     29.68757208	     -9.40488164	      0.00000000	     -0.08683381	      0.37298891	      0.23510349	     -0.16125907	      0.49607524	      0.24979746	     -0.14265927	      0.90688523	      0.24979746	     -0.09924236	      0.90688523	      0.20571556	     -0.08063388	      0.76059898	      0.19102159	     -0.04961684	      0.57775982	      0.17632762	     -0.62024522	      4.21932510	      1.30757510	      0.00000000	      0.00000000	     24.19738914	      4.15461186	     13.19383034	     -6.67518383	    -11.55125852	    -31.95198299	     20.09556785	      3.44959213	    -12.36921652	      3.77430825	     -0.06737227	    -12.55211346	     80.71307297	      4.69537131	     65.00585047	    -12.71952474	      1.72485793
      1.03389831	      4.58217428	     -3.33626409	     84.12990734	      0.24271731	      1.05213388	      0.33762821	     -0.31014419	      5.55723021	      4.77622609	      7.15179794	      0.12482242	     35.78571384	      0.07358863	      0.00000000	     -5.24771012	     -5.14954962	      1.80409471	      0.31820241	      0.00555368	     29.62218365	     -9.37926391	      0.00000000	     -0.09937414	      0.39514798	      0.27914123	     -0.18454772	      0.52554682	      0.29658756	     -0.16326178	      0.96076281	      0.29658756	     -0.11357471	      0.96076281	      0.24424857	     -0.09227883	      0.80578577	      0.22680225	     -0.05678238	      0.61208423	      0.20935592	     -0.70981955	      4.46999301	      1.55249977	      0.00000000	      0.00000000	     24.25061065	      3.77594011	     12.40915239	     -6.61034646	    -11.58857054	    -32.44601332	     19.99820551	      3.44016806	    -12.69260011	      3.77937404	      0.05639522	    -12.44351692	     77.59831193	      5.05127966	     60.49131769	    -10.63319212	      0.87948275
      1.05084746	      4.51081105	     -3.47957748	     83.93881266	      0.24297032	      1.05201646	      0.33748727	     -0.12780253	      5.49268177	      4.75764342	      7.34371236	      0.12817196	     35.55934480	     -0.02966702	      0.00000000	     -5.12227932	     -5.07916226	      1.34768478	      0.31716691	      0.00553561	     29.60993137	     -8.87510801	      0.00000000	     -0.06860509	      0.39656011	      0.29252779	     -0.12740651	      0.52742495	      0.31081077	     -0.11271130	      0.96419625	      0.31081077	     -0.07840875	      0.96419625	      0.25596181	     -0.06370668	      0.80866538	      0.23767883	     -0.03920095	      0.61427161	      0.21939584	     -0.49003927	      4.48596729	      1.62695179	      0.00000000	      0.00000000	     24.30160304	      3.31394055	     11.94815076	     -6.62948941	    -11.45841597	    -33.42291078	     20.09552549	      3.45776239	    -13.05508506	      3.77453673	      0.18968716	    -12.39937945	     75.40005982	      5.38482049	     56.01898902	     -8.79992506	      0.42607169
      1.06779661	      4.56216188	     -3.43846413	     84.01082575	      0.24287581	      1.05210475	      0.33715695	     -0.29678126	      5.60448048	      5.78476775	      7.23305533	      0.12624063	     34.97738428	     -1.76518611	      0.00000000	     -5.16338113	     -5.14068409	      3.28734695	      0.30674225	      0.00535366	     29.04887072	    -11.18405989	      0.00000000	     -0.06972694	      0.41459277	      0.25526206	     -0.12948990	      0.55140839	      0.27121594	     -0.11455439	      1.00804087	      0.27121594	     -0.07969092	      1.00804087	      0.22335431	     -0.06474843	      0.84543758	      0.20740043	     -0.03984197	      0.64220421	      0.19144655	     -0.49805255	      4.68995638	      1.41969103	      0.00000000	      0.00000000	     24.31816190	      3.14025992	     12.19188042	     -6.62643679	    -11.32424305	    -34.75056366	     20.31595858	      3.34927479	    -13.46349266	      3.73832459	      0.97562515	    -12.37037565	     89.92148371	      5.07743530	     38.13959667	     -6.78232404	      0.44599758
      1.08474576	      4.53465276	     -3.43099896	     83.90788868	      0.24302920	      1.05216481	      0.33697648	     -0.33170554	      5.57213234	      5.77495496	      7.25247720	      0.12657961	     34.89271406	     -1.75376102	      0.00000000	     -5.16919217	     -5.10757683	      3.30642882	      0.30012743	      0.00523821	     29.06886807	    -11.16114399	      0.00000000	     -0.05936804	      0.41839144	      0.24139288	     -0.11025239	      0.55646062	      0.25647993	     -0.09753575	      1.01727696	      0.25647993	     -0.06785173	      1.01727696	      0.21121877	     -0.05512916	      0.85318383	      0.19613171	     -0.03392290	      0.64808835	      0.18104466	     -0.42405997	      4.73292768	      1.34255477	      0.00000000	      0.00000000	     24.29167314	      3.12773950	     12.20406958	     -6.71947168	    -11.30849678	    -34.77940798	     20.30357047	      3.32331415	    -13.48179209	      3.73153100	      1.29680346	    -12.26013474	     89.87548880	      5.13307479	     38.08854639	     -6.75802803	      0.41942955
      1.10169492	      4.78629005	     -3.32851952	     83.97131306	      0.24239509	      1.05242090	      0.33688442	     -0.47615642	      5.76053374	      5.06076682	      7.24292396	      0.12641287	     34.73210778	     -1.09272385	      0.00000000	     -5.27406066	     -5.36298995	      2.76572643	      0.30261447	      0.00528162	     29.37703685	     -9.77351246	      0.00000000	     -0.06854778	      0.47251311	      0.27230244	     -0.12730008	      0.62844244	      0.28932134	     -0.11261715	      1.14886838	      0.28932134	     -0.07834326	      1.14886838	      0.23826464	     -0.06365347	      0.96354874	      0.22124573	     -0.03916820	      0.73192281	      0.20422683	     -0.48962994	      5.34516283	      1.51446448	      0.00000000	      0.00000000	     24.02620031	      2.67499055	     12.65763579	     -7.05667826	    -11.10525221	    -37.42197271	     21.18965653	      2.44585670	    -14.60955617	      3.46791493	      1.73583491	    -12.24457056	     88.44565087	      5.93694917	     35.26676245	     -5.83594541	      0.26416078
      1.11864407	      4.88199389	     -3.23443514	     84.13200773	      0.24205032	      1.05257650	      0.33659219	     -0.58164819	      5.78151656	      3.67035360	      7.25150431	      0.12656263	     34.96139867	      0.49331411	      0.00000000	     -5.35669087	     -5.47407944	      2.06356045	      0.30549934	      0.00533197	     29.59510534	     -8.35901341	      0.00000000	     -0.07548563	      0.49959966	      0.22581843	     -0.14018436	      0.66446755	      0.23993208	     -0.12401534	      1.21472663	      0.23993208	     -0.08627252	      1.21472663	      0.19759113	     -0.07009595	      1.01878364	      0.18347747	     -0.04313249	      0.77387988	      0.16936382	     -0.53918629	      5.65157133	      1.25593436	      0.00000000	      0.00000000	     23.93037996	      2.78423901	     13.13290865	     -7.05782263	    -10.80038354	    -40.10837843	     21.53878990	      2.57597951	    -15.08543976	      3.37580518	      2.40468193	    -11.93388937	    104.51830631	      5.10908397	     18.32413263	     -4.79260343	     -0.51563890
      1.13559322	      5.07762740	     -3.03581540	     84.33704260	      0.24157102	      1.05276434	      0.33618463	     -0.90473068	      5.96516642	      3.47995091	      7.04197233	      0.12290560	     34.94930097	      0.56296201	      0.00000000	     -5.58202470	     -5.67023717	      1.59306381	      0.30552748	      0.00533246	     29.75572223	     -7.41550276	      0.00000000	     -0.09258877	      0.53158255	      0.20337637	     -0.17194660	      0.70700480	      0.21608740	     -0.15211408	      1.29248982	      0.21608740	     -0.10581970	      1.29248982	      0.17795433	     -0.08597793	      1.08400314	      0.16524330	     -0.05290522	      0.82342137	      0.15253228	     -0.66135230	      6.01336815	      1.13111838	      0.00000000	      0.00000000	     23.79916810	      3.10069780	     12.94669371	     -7.42771521	    -10.81716023	    -40.41214837	     21.79258721	      2.56757852	    -15.42232063	      3.29372147	      2.62132359	    -11.80338170	    104.19944222	      5.24796114	     18.28941166	     -5.18128022	     -1.57765029
      1.15254237	      5.16015136	     -2.95333314	     84.79339354	      0.24088381	      1.05272007	      0.33571171	     -1.11877994	      6.07153143	      3.39452428	      6.73644028	      0.11757306	     34.85022520	      0.23373273	      0.00000000	     -5.64002825	     -5.77681067	      1.77168633	      0.31275815	      0.00545866	     29.66292484	     -7.21886864	      0.00000000	     -0.08945152	      0.54988183	      0.11339085	     -0.16612041	      0.73134283	      0.12047778	     -0.14695990	      1.33698268	      0.12047778	     -0.10223414	      1.33698268	      0.09921699	     -0.08306468	      1.12131903	      0.09213006	     -0.05111260	      0.85176695	      0.08504314	     -0.63894325	      6.22037322	      0.63064588	      0.00000000	      0.00000000	     23.65939211	      3.47357509	     12.73217091	     -7.73545619	    -10.79281774	    -40.44655095	     22.09588759	      2.33075313	    -16.11944559	      2.91861256	      2.66670628	    -11.83115883	    104.79901110	      5.36663631	     17.46259435	     -5.49511680	     -3.61797703
      1.16949153	      5.17176517	     -2.90541842	     84.94046820	      0.24065667	      1.05260157	      0.33542798	     -1.15408439	      6.09091729	      3.43007384	      6.69265278	      0.11680883	     35.01214805	      0.21766171	      0.00000000	     -5.71025419	     -5.77879546	      1.65969449	      0.32506546	      0.00567346	     29.65833890	     -7.29091373	      0.00000000	     -0.08574277	      0.55961814	      0.09809069	     -0.15923289	      0.74429213	      0.10422136	     -0.14086679	      1.36065556	      0.10422136	     -0.09799541	      1.36065556	      0.08582935	     -0.07962073	      1.14117332	      0.07969868	     -0.04899342	      0.86684850	      0.07356802	     -0.61245201	      6.33051237	      0.54555098	      0.00000000	      0.00000000	     23.63333069	      3.63465682	     12.64395055	     -7.94188668	    -10.79266509	    -40.45092072	     22.03554908	      2.34237409	    -16.15824071	      2.88424539	      2.86066699	    -11.77851161	    104.83200488	      5.37081970	     17.42056953	     -5.50299000	     -3.75285715
